solid 0
facet normal -0 0 -4.41
outer loop
vertex 3.58 1.34 0
vertex 0.08 0.08 0
vertex 0.08 1.34 0
endloop
endfacet 
facet normal 0 0 -4.41
outer loop
vertex 0.08 0.08 0
vertex 3.58 1.34 0
vertex 3.58 0.08 0
endloop
endfacet 
facet normal 0 -0 4.41
outer loop
vertex 3.58 0.08 0
vertex 3.58 1.34 0
vertex 0.08 0.08 0
endloop
endfacet 
facet normal -0 0 4.41
outer loop
vertex 0.08 1.34 0
vertex 0.08 0.08 0
vertex 3.58 1.34 0
endloop
endfacet 
facet normal 0 0.6895 0
outer loop
vertex 0.08 0.08 0.197
vertex 3.58 0.08 0
vertex 0.08 0.08 0
endloop
endfacet 
facet normal 0 0.6895 -0
outer loop
vertex 3.58 0.08 0
vertex 0.08 0.08 0.197
vertex 3.58 0.08 0.197
endloop
endfacet 
facet normal 0.24822 0 0
outer loop
vertex 0.08 1.34 0
vertex 0.08 0.08 0.197
vertex 0.08 0.08 0
endloop
endfacet 
facet normal 0.24822 -0 0
outer loop
vertex 0.08 0.08 0.197
vertex 0.08 1.34 0
vertex 0.08 1.34 0.197
endloop
endfacet 
facet normal -0.24822 -0 0
outer loop
vertex 3.58 1.34 0.197
vertex 3.58 0.08 0
vertex 3.58 0.08 0.197
endloop
endfacet 
facet normal -0.24822 0 0
outer loop
vertex 3.58 0.08 0
vertex 3.58 1.34 0.197
vertex 3.58 1.34 0
endloop
endfacet 
facet normal 0 -0.6895 -0
outer loop
vertex 3.58 1.34 0.197
vertex 0.08 1.34 0
vertex 3.58 1.34 0
endloop
endfacet 
facet normal 0 -0.6895 0
outer loop
vertex 0.08 1.34 0
vertex 3.58 1.34 0.197
vertex 0.08 1.34 0.197
endloop
endfacet 
facet normal 0 0 -0.1136
outer loop
vertex 0 1.42 0
vertex 0.08 1.34 0
vertex 0 0 0
endloop
endfacet 
facet normal 0 0 -0.2928
outer loop
vertex 0.08 1.34 0
vertex 0 1.42 0
vertex 3.66 1.42 0
endloop
endfacet 
facet normal 0 0 -0.28
outer loop
vertex 0.08 1.34 0
vertex 3.66 1.42 0
vertex 3.58 1.34 0
endloop
endfacet 
facet normal 0 0 -0.1008
outer loop
vertex 3.58 1.34 0
vertex 3.66 1.42 0
vertex 3.58 0.08 0
endloop
endfacet 
facet normal 0 0 -0.2928
outer loop
vertex 0 0 0
vertex 0.08 0.08 0
vertex 3.66 0 0
endloop
endfacet 
facet normal -0 0 -0.1008
outer loop
vertex 0.08 0.08 0
vertex 0 0 0
vertex 0.08 1.34 0
endloop
endfacet 
facet normal 0 0 -0.28
outer loop
vertex 3.66 0 0
vertex 0.08 0.08 0
vertex 3.58 0.08 0
endloop
endfacet 
facet normal 0 0 -0.1136
outer loop
vertex 3.66 0 0
vertex 3.58 0.08 0
vertex 3.66 1.42 0
endloop
endfacet 
facet normal 0 0.72102 0
outer loop
vertex 0 1.42 0.197
vertex 3.66 1.42 0
vertex 0 1.42 0
endloop
endfacet 
facet normal 0 0.72102 -0
outer loop
vertex 3.66 1.42 0
vertex 0 1.42 0.197
vertex 3.66 1.42 0.197
endloop
endfacet 
facet normal -0.27974 -0 0
outer loop
vertex 0 1.42 0.197
vertex 0 0 0
vertex 0 0 0.197
endloop
endfacet 
facet normal -0.27974 0 0
outer loop
vertex 0 0 0
vertex 0 1.42 0.197
vertex 0 1.42 0
endloop
endfacet 
facet normal 0.27974 0 0
outer loop
vertex 3.66 1.42 0
vertex 3.66 0 0.197
vertex 3.66 0 0
endloop
endfacet 
facet normal 0.27974 -0 0
outer loop
vertex 3.66 0 0.197
vertex 3.66 1.42 0
vertex 3.66 1.42 0.197
endloop
endfacet 
facet normal 0 -0.72102 -0
outer loop
vertex 3.66 0 0.197
vertex 0 0 0
vertex 3.66 0 0
endloop
endfacet 
facet normal 0 -0.72102 0
outer loop
vertex 0 0 0
vertex 3.66 0 0.197
vertex 0 0 0.197
endloop
endfacet 
facet normal 0 0 0.1136
outer loop
vertex 0 0 0.197
vertex 0.08 0.08 0.197
vertex 0 1.42 0.197
endloop
endfacet 
facet normal 0 0 0.2928
outer loop
vertex 0.08 0.08 0.197
vertex 0 0 0.197
vertex 3.66 0 0.197
endloop
endfacet 
facet normal -0 0 0.28
outer loop
vertex 0.08 0.08 0.197
vertex 3.66 0 0.197
vertex 3.58 0.08 0.197
endloop
endfacet 
facet normal -0 0 0.1008
outer loop
vertex 3.58 0.08 0.197
vertex 3.66 0 0.197
vertex 3.58 1.34 0.197
endloop
endfacet 
facet normal -0 0 0.2928
outer loop
vertex 0 1.42 0.197
vertex 0.08 1.34 0.197
vertex 3.66 1.42 0.197
endloop
endfacet 
facet normal 0 0 0.1008
outer loop
vertex 0.08 1.34 0.197
vertex 0 1.42 0.197
vertex 0.08 0.08 0.197
endloop
endfacet 
facet normal 0 0 0.28
outer loop
vertex 3.66 1.42 0.197
vertex 0.08 1.34 0.197
vertex 3.58 1.34 0.197
endloop
endfacet 
facet normal 0 0 0.1136
outer loop
vertex 3.66 1.42 0.197
vertex 3.58 1.34 0.197
vertex 3.66 0 0.197
endloop
endfacet 
endsolid 
